<mxfile host="app.diagrams.net" agent="Mozilla/5.0 (Windows NT 10.0; Win64; x64) AppleWebKit/537.36 (KHTML, like Gecko) Chrome/133.0.0.0 Safari/537.36" version="26.0.15">
  <diagram name="Halaman-1" id="qTLkXTN7XqWBTnq_LqQ1">
    <mxGraphModel dx="2333" dy="2407" grid="1" gridSize="10" guides="1" tooltips="1" connect="1" arrows="1" fold="1" page="1" pageScale="1" pageWidth="827" pageHeight="1169" math="0" shadow="0">
      <root>
        <mxCell id="0" />
        <mxCell id="1" parent="0" />
        <mxCell id="HOICXqCXa8rDirJjNS4T-1" value="START" style="strokeWidth=2;html=1;shape=mxgraph.flowchart.terminator;whiteSpace=wrap;" vertex="1" parent="1">
          <mxGeometry x="70" y="-130" width="100" height="60" as="geometry" />
        </mxCell>
        <mxCell id="HOICXqCXa8rDirJjNS4T-7" style="edgeStyle=orthogonalEdgeStyle;rounded=0;orthogonalLoop=1;jettySize=auto;html=1;" edge="1" parent="1" source="HOICXqCXa8rDirJjNS4T-4">
          <mxGeometry relative="1" as="geometry">
            <mxPoint x="120" y="360" as="targetPoint" />
            <Array as="points">
              <mxPoint x="120" y="93" />
            </Array>
          </mxGeometry>
        </mxCell>
        <mxCell id="HOICXqCXa8rDirJjNS4T-4" value="INPUT n" style="shape=parallelogram;perimeter=parallelogramPerimeter;whiteSpace=wrap;html=1;fixedSize=1;" vertex="1" parent="1">
          <mxGeometry x="55" y="90" width="130" height="70" as="geometry" />
        </mxCell>
        <mxCell id="HOICXqCXa8rDirJjNS4T-83" style="edgeStyle=orthogonalEdgeStyle;rounded=0;orthogonalLoop=1;jettySize=auto;html=1;entryX=0;entryY=0.5;entryDx=0;entryDy=0;" edge="1" parent="1" source="HOICXqCXa8rDirJjNS4T-6" target="HOICXqCXa8rDirJjNS4T-41">
          <mxGeometry relative="1" as="geometry" />
        </mxCell>
        <mxCell id="HOICXqCXa8rDirJjNS4T-86" value="YES" style="edgeLabel;html=1;align=center;verticalAlign=middle;resizable=0;points=[];" vertex="1" connectable="0" parent="HOICXqCXa8rDirJjNS4T-83">
          <mxGeometry x="0.0857" relative="1" as="geometry">
            <mxPoint as="offset" />
          </mxGeometry>
        </mxCell>
        <mxCell id="HOICXqCXa8rDirJjNS4T-93" style="edgeStyle=orthogonalEdgeStyle;rounded=0;orthogonalLoop=1;jettySize=auto;html=1;entryX=0.5;entryY=0;entryDx=0;entryDy=0;" edge="1" parent="1" source="HOICXqCXa8rDirJjNS4T-6" target="HOICXqCXa8rDirJjNS4T-68">
          <mxGeometry relative="1" as="geometry" />
        </mxCell>
        <mxCell id="HOICXqCXa8rDirJjNS4T-94" value="NO" style="edgeLabel;html=1;align=center;verticalAlign=middle;resizable=0;points=[];" vertex="1" connectable="0" parent="HOICXqCXa8rDirJjNS4T-93">
          <mxGeometry x="0.0174" y="1" relative="1" as="geometry">
            <mxPoint as="offset" />
          </mxGeometry>
        </mxCell>
        <mxCell id="HOICXqCXa8rDirJjNS4T-6" value="i &amp;lt; n" style="rhombus;whiteSpace=wrap;html=1;" vertex="1" parent="1">
          <mxGeometry x="35" y="365" width="170" height="145" as="geometry" />
        </mxCell>
        <mxCell id="HOICXqCXa8rDirJjNS4T-32" value="" style="edgeStyle=orthogonalEdgeStyle;rounded=0;orthogonalLoop=1;jettySize=auto;html=1;exitX=0.5;exitY=1;exitDx=0;exitDy=0;exitPerimeter=0;" edge="1" parent="1" source="HOICXqCXa8rDirJjNS4T-1" target="HOICXqCXa8rDirJjNS4T-31">
          <mxGeometry relative="1" as="geometry">
            <mxPoint x="120" y="-327" as="sourcePoint" />
            <mxPoint x="120" y="-167" as="targetPoint" />
          </mxGeometry>
        </mxCell>
        <mxCell id="HOICXqCXa8rDirJjNS4T-33" style="edgeStyle=orthogonalEdgeStyle;rounded=0;orthogonalLoop=1;jettySize=auto;html=1;entryX=0.5;entryY=0;entryDx=0;entryDy=0;" edge="1" parent="1" source="HOICXqCXa8rDirJjNS4T-31" target="HOICXqCXa8rDirJjNS4T-4">
          <mxGeometry relative="1" as="geometry" />
        </mxCell>
        <mxCell id="HOICXqCXa8rDirJjNS4T-31" value="i = 1&lt;div&gt;a = 0&lt;/div&gt;" style="shape=hexagon;perimeter=hexagonPerimeter2;whiteSpace=wrap;html=1;fixedSize=1;" vertex="1" parent="1">
          <mxGeometry x="60" y="-30" width="120" height="80" as="geometry" />
        </mxCell>
        <mxCell id="HOICXqCXa8rDirJjNS4T-45" style="edgeStyle=orthogonalEdgeStyle;rounded=0;orthogonalLoop=1;jettySize=auto;html=1;entryX=0.5;entryY=1;entryDx=0;entryDy=0;" edge="1" parent="1" source="HOICXqCXa8rDirJjNS4T-41" target="HOICXqCXa8rDirJjNS4T-59">
          <mxGeometry relative="1" as="geometry">
            <mxPoint x="850" y="437.5" as="targetPoint" />
          </mxGeometry>
        </mxCell>
        <mxCell id="HOICXqCXa8rDirJjNS4T-49" value="YES" style="edgeLabel;html=1;align=center;verticalAlign=middle;resizable=0;points=[];" vertex="1" connectable="0" parent="HOICXqCXa8rDirJjNS4T-45">
          <mxGeometry x="-0.1202" y="1" relative="1" as="geometry">
            <mxPoint as="offset" />
          </mxGeometry>
        </mxCell>
        <mxCell id="HOICXqCXa8rDirJjNS4T-62" style="edgeStyle=orthogonalEdgeStyle;rounded=0;orthogonalLoop=1;jettySize=auto;html=1;entryX=0.5;entryY=1;entryDx=0;entryDy=0;" edge="1" parent="1" source="HOICXqCXa8rDirJjNS4T-41" target="HOICXqCXa8rDirJjNS4T-56">
          <mxGeometry relative="1" as="geometry">
            <mxPoint x="670" y="430" as="targetPoint" />
          </mxGeometry>
        </mxCell>
        <mxCell id="HOICXqCXa8rDirJjNS4T-65" value="NO" style="edgeLabel;html=1;align=center;verticalAlign=middle;resizable=0;points=[];" vertex="1" connectable="0" parent="HOICXqCXa8rDirJjNS4T-62">
          <mxGeometry x="-0.4203" y="3" relative="1" as="geometry">
            <mxPoint as="offset" />
          </mxGeometry>
        </mxCell>
        <mxCell id="HOICXqCXa8rDirJjNS4T-41" value="a % 2 == 0" style="rhombus;whiteSpace=wrap;html=1;" vertex="1" parent="1">
          <mxGeometry x="310" y="357.5" width="170" height="160" as="geometry" />
        </mxCell>
        <mxCell id="HOICXqCXa8rDirJjNS4T-48" value="END" style="strokeWidth=2;html=1;shape=mxgraph.flowchart.terminator;whiteSpace=wrap;" vertex="1" parent="1">
          <mxGeometry x="570" y="640" width="100" height="60" as="geometry" />
        </mxCell>
        <mxCell id="HOICXqCXa8rDirJjNS4T-84" style="edgeStyle=orthogonalEdgeStyle;rounded=0;orthogonalLoop=1;jettySize=auto;html=1;" edge="1" parent="1" source="HOICXqCXa8rDirJjNS4T-56">
          <mxGeometry relative="1" as="geometry">
            <mxPoint x="120.00000000000023" y="240" as="targetPoint" />
            <Array as="points">
              <mxPoint x="395" y="240" />
            </Array>
          </mxGeometry>
        </mxCell>
        <mxCell id="HOICXqCXa8rDirJjNS4T-56" value="i + 1" style="rounded=0;whiteSpace=wrap;html=1;" vertex="1" parent="1">
          <mxGeometry x="335" y="260" width="120" height="60" as="geometry" />
        </mxCell>
        <mxCell id="HOICXqCXa8rDirJjNS4T-80" style="edgeStyle=orthogonalEdgeStyle;rounded=0;orthogonalLoop=1;jettySize=auto;html=1;entryX=0;entryY=0.5;entryDx=0;entryDy=0;" edge="1" parent="1" source="HOICXqCXa8rDirJjNS4T-59" target="HOICXqCXa8rDirJjNS4T-61">
          <mxGeometry relative="1" as="geometry" />
        </mxCell>
        <mxCell id="HOICXqCXa8rDirJjNS4T-59" value="i + 1" style="rounded=0;whiteSpace=wrap;html=1;" vertex="1" parent="1">
          <mxGeometry x="510" y="345" width="120" height="60" as="geometry" />
        </mxCell>
        <mxCell id="HOICXqCXa8rDirJjNS4T-81" style="edgeStyle=orthogonalEdgeStyle;rounded=0;orthogonalLoop=1;jettySize=auto;html=1;endArrow=none;startFill=0;exitX=0.5;exitY=0;exitDx=0;exitDy=0;" edge="1" parent="1" source="HOICXqCXa8rDirJjNS4T-61">
          <mxGeometry relative="1" as="geometry">
            <mxPoint x="390" y="240" as="targetPoint" />
            <mxPoint x="800" y="340" as="sourcePoint" />
            <Array as="points">
              <mxPoint x="770" y="345" />
              <mxPoint x="770" y="240" />
            </Array>
          </mxGeometry>
        </mxCell>
        <mxCell id="HOICXqCXa8rDirJjNS4T-61" value="a + 1" style="rounded=0;whiteSpace=wrap;html=1;" vertex="1" parent="1">
          <mxGeometry x="707" y="345" width="120" height="60" as="geometry" />
        </mxCell>
        <mxCell id="HOICXqCXa8rDirJjNS4T-87" style="edgeStyle=orthogonalEdgeStyle;rounded=0;orthogonalLoop=1;jettySize=auto;html=1;entryX=0;entryY=0.25;entryDx=0;entryDy=0;" edge="1" parent="1" source="HOICXqCXa8rDirJjNS4T-68" target="HOICXqCXa8rDirJjNS4T-72">
          <mxGeometry relative="1" as="geometry">
            <mxPoint x="350" y="715" as="targetPoint" />
          </mxGeometry>
        </mxCell>
        <mxCell id="HOICXqCXa8rDirJjNS4T-89" value="YES" style="edgeLabel;html=1;align=center;verticalAlign=middle;resizable=0;points=[];" vertex="1" connectable="0" parent="HOICXqCXa8rDirJjNS4T-87">
          <mxGeometry x="0.1421" y="-2" relative="1" as="geometry">
            <mxPoint as="offset" />
          </mxGeometry>
        </mxCell>
        <mxCell id="HOICXqCXa8rDirJjNS4T-95" style="edgeStyle=orthogonalEdgeStyle;rounded=0;orthogonalLoop=1;jettySize=auto;html=1;entryX=0;entryY=0.5;entryDx=0;entryDy=0;" edge="1" parent="1" source="HOICXqCXa8rDirJjNS4T-68" target="HOICXqCXa8rDirJjNS4T-71">
          <mxGeometry relative="1" as="geometry">
            <Array as="points">
              <mxPoint x="120" y="765" />
            </Array>
          </mxGeometry>
        </mxCell>
        <mxCell id="HOICXqCXa8rDirJjNS4T-68" value="a == 2" style="rhombus;whiteSpace=wrap;html=1;" vertex="1" parent="1">
          <mxGeometry x="30" y="585" width="180" height="170" as="geometry" />
        </mxCell>
        <mxCell id="HOICXqCXa8rDirJjNS4T-92" style="edgeStyle=orthogonalEdgeStyle;rounded=0;orthogonalLoop=1;jettySize=auto;html=1;entryX=0.5;entryY=1;entryDx=0;entryDy=0;entryPerimeter=0;" edge="1" parent="1" source="HOICXqCXa8rDirJjNS4T-71" target="HOICXqCXa8rDirJjNS4T-48">
          <mxGeometry relative="1" as="geometry">
            <mxPoint x="760" y="875" as="targetPoint" />
          </mxGeometry>
        </mxCell>
        <mxCell id="HOICXqCXa8rDirJjNS4T-71" value="PRINT bukan bilangan prima" style="shape=parallelogram;perimeter=parallelogramPerimeter;whiteSpace=wrap;html=1;fixedSize=1;" vertex="1" parent="1">
          <mxGeometry x="340" y="720" width="200" height="90" as="geometry" />
        </mxCell>
        <mxCell id="HOICXqCXa8rDirJjNS4T-91" style="edgeStyle=orthogonalEdgeStyle;rounded=0;orthogonalLoop=1;jettySize=auto;html=1;entryX=0.5;entryY=0;entryDx=0;entryDy=0;entryPerimeter=0;" edge="1" parent="1" source="HOICXqCXa8rDirJjNS4T-72" target="HOICXqCXa8rDirJjNS4T-48">
          <mxGeometry relative="1" as="geometry">
            <mxPoint x="720" y="715" as="targetPoint" />
          </mxGeometry>
        </mxCell>
        <mxCell id="HOICXqCXa8rDirJjNS4T-72" value="PRINT&amp;nbsp; bilangan prima" style="shape=parallelogram;perimeter=parallelogramPerimeter;whiteSpace=wrap;html=1;fixedSize=1;" vertex="1" parent="1">
          <mxGeometry x="305" y="539" width="180" height="92" as="geometry" />
        </mxCell>
      </root>
    </mxGraphModel>
  </diagram>
</mxfile>
